<?xml version="1.0" encoding="UTF-8" standalone="no"?>
<svg
   xmlns:dc="http://purl.org/dc/elements/1.1/"
   xmlns:cc="http://creativecommons.org/ns#"
   xmlns:rdf="http://www.w3.org/1999/02/22-rdf-syntax-ns#"
   xmlns:svg="http://www.w3.org/2000/svg"
   xmlns="http://www.w3.org/2000/svg"
   xmlns:xlink="http://www.w3.org/1999/xlink"
   xmlns:sodipodi="http://sodipodi.sourceforge.net/DTD/sodipodi-0.dtd"
   xmlns:inkscape="http://www.inkscape.org/namespaces/inkscape"
   viewBox="0 0 640 976"
   id="svg2"
   version="1.1"
   inkscape:version="0.48.3.1 r9886"
   width="100%"
   height="100%"
   sodipodi:docname="ebn.svg">
  <metadata
     id="metadata12">
    <rdf:RDF>
      <cc:Work
         rdf:about="">
        <dc:format>image/svg+xml</dc:format>
        <dc:type
           rdf:resource="http://purl.org/dc/dcmitype/StillImage" />
      </cc:Work>
    </rdf:RDF>
  </metadata>
  <defs
     id="defs10">
    <linearGradient
       inkscape:collect="always"
       id="linearGradient3352">
      <stop
         style="stop-color:#00ffff;stop-opacity:1;"
         offset="0"
         id="stop3354" />
      <stop
         style="stop-color:#00ffff;stop-opacity:0;"
         offset="1"
         id="stop3356" />
    </linearGradient>
    <linearGradient
       inkscape:collect="always"
       id="linearGradient3344">
      <stop
         style="stop-color:#00ffff;stop-opacity:1;"
         offset="0"
         id="stop3346" />
      <stop
         style="stop-color:#00ffff;stop-opacity:0;"
         offset="1"
         id="stop3348" />
    </linearGradient>
    <linearGradient
       id="linearGradient3336">
      <stop
         style="stop-color:#00dcff;stop-opacity:1;"
         offset="0"
         id="stop3338" />
      <stop
         style="stop-color:#00ffff;stop-opacity:0;"
         offset="1"
         id="stop3340" />
    </linearGradient>
    <linearGradient
       id="linearGradient3296">
      <stop
         style="stop-color:#00e4ff;stop-opacity:1;"
         offset="0"
         id="stop3298" />
      <stop
         style="stop-color:#00ffff;stop-opacity:0;"
         offset="1"
         id="stop3300" />
    </linearGradient>
    <linearGradient
       inkscape:collect="always"
       xlink:href="#linearGradient3296"
       id="linearGradient3302"
       x1="66.187201"
       y1="543.86678"
       x2="324.04921"
       y2="543.86678"
       gradientUnits="userSpaceOnUse" />
    <linearGradient
       inkscape:collect="always"
       xlink:href="#linearGradient3336"
       id="linearGradient3342"
       x1="308.72709"
       y1="549.9102"
       x2="525.66925"
       y2="548.44806"
       gradientUnits="userSpaceOnUse" />
    <linearGradient
       inkscape:collect="always"
       xlink:href="#linearGradient3344"
       id="linearGradient3350"
       x1="337.48559"
       y1="544.66486"
       x2="643.61914"
       y2="546.12701"
       gradientUnits="userSpaceOnUse" />
    <linearGradient
       inkscape:collect="always"
       xlink:href="#linearGradient3352"
       id="linearGradient3358"
       x1="352.10706"
       y1="545.39593"
       x2="754.74268"
       y2="536.62305"
       gradientUnits="userSpaceOnUse"
       gradientTransform="translate(1.462153,-1.462153)" />
    <linearGradient
       inkscape:collect="always"
       xlink:href="#linearGradient3336-8"
       id="linearGradient3342-3"
       x1="308.72708"
       y1="549.91022"
       x2="525.66925"
       y2="548.44806"
       gradientUnits="userSpaceOnUse" />
    <linearGradient
       id="linearGradient3336-8">
      <stop
         style="stop-color:#00dcff;stop-opacity:1;"
         offset="0"
         id="stop3338-1" />
      <stop
         style="stop-color:#00ffff;stop-opacity:0;"
         offset="1"
         id="stop3340-8" />
    </linearGradient>
    <linearGradient
       gradientTransform="matrix(2.158363,0,0,0.87586358,-289.38142,72.522539)"
       y2="548.44806"
       x2="525.66925"
       y1="549.91022"
       x1="308.72708"
       gradientUnits="userSpaceOnUse"
       id="linearGradient3397"
       xlink:href="#linearGradient3336-8"
       inkscape:collect="always" />
    <linearGradient
       inkscape:collect="always"
       xlink:href="#linearGradient3336-0"
       id="linearGradient3342-6"
       x1="308.72708"
       y1="549.91022"
       x2="525.66925"
       y2="548.44806"
       gradientUnits="userSpaceOnUse" />
    <linearGradient
       id="linearGradient3336-0">
      <stop
         style="stop-color:#00dcff;stop-opacity:1;"
         offset="0"
         id="stop3338-6" />
      <stop
         style="stop-color:#00ffff;stop-opacity:0;"
         offset="1"
         id="stop3340-9" />
    </linearGradient>
    <linearGradient
       gradientTransform="matrix(1.1082582,0,0,1,-36.831125,0.6032656)"
       y2="548.44806"
       x2="525.66925"
       y1="549.91022"
       x1="308.72708"
       gradientUnits="userSpaceOnUse"
       id="linearGradient3431"
       xlink:href="#linearGradient3336-0"
       inkscape:collect="always" />
    <linearGradient
       inkscape:collect="always"
       xlink:href="#linearGradient3344-1"
       id="linearGradient3350-7"
       x1="337.4856"
       y1="544.66486"
       x2="643.61914"
       y2="546.12701"
       gradientUnits="userSpaceOnUse" />
    <linearGradient
       inkscape:collect="always"
       id="linearGradient3344-1">
      <stop
         style="stop-color:#00ffff;stop-opacity:1;"
         offset="0"
         id="stop3346-9" />
      <stop
         style="stop-color:#00ffff;stop-opacity:0;"
         offset="1"
         id="stop3348-2" />
    </linearGradient>
    <linearGradient
       gradientTransform="matrix(1.1374904,0,0,1,-52.249665,-1.4621499)"
       y2="546.12701"
       x2="643.61914"
       y1="544.66486"
       x1="337.4856"
       gradientUnits="userSpaceOnUse"
       id="linearGradient3465"
       xlink:href="#linearGradient3344-1"
       inkscape:collect="always" />
    <linearGradient
       inkscape:collect="always"
       xlink:href="#linearGradient3352-6"
       id="linearGradient3358-6"
       x1="352.10706"
       y1="545.39594"
       x2="754.74268"
       y2="536.62305"
       gradientUnits="userSpaceOnUse"
       gradientTransform="translate(1.462153,-1.462153)" />
    <linearGradient
       inkscape:collect="always"
       id="linearGradient3352-6">
      <stop
         style="stop-color:#00ffff;stop-opacity:1;"
         offset="0"
         id="stop3354-3" />
      <stop
         style="stop-color:#00ffff;stop-opacity:0;"
         offset="1"
         id="stop3356-8" />
    </linearGradient>
    <linearGradient
       y2="536.62305"
       x2="754.74268"
       y1="545.39594"
       x1="352.10706"
       gradientTransform="matrix(1.1325994,0,0,1,-42.302686,-0.73107195)"
       gradientUnits="userSpaceOnUse"
       id="linearGradient3499"
       xlink:href="#linearGradient3352-6"
       inkscape:collect="always" />
    <linearGradient
       inkscape:collect="always"
       xlink:href="#linearGradient3352-8"
       id="linearGradient3358-0"
       x1="352.10706"
       y1="545.39594"
       x2="754.74268"
       y2="536.62305"
       gradientUnits="userSpaceOnUse"
       gradientTransform="translate(1.462153,-1.462153)" />
    <linearGradient
       inkscape:collect="always"
       id="linearGradient3352-8">
      <stop
         style="stop-color:#00ffff;stop-opacity:1;"
         offset="0"
         id="stop3354-33" />
      <stop
         style="stop-color:#00ffff;stop-opacity:0;"
         offset="1"
         id="stop3356-9" />
    </linearGradient>
    <linearGradient
       y2="536.62305"
       x2="754.74268"
       y1="545.39594"
       x1="352.10706"
       gradientTransform="matrix(1.1452279,0,0,1,-62.832958,2.1932341)"
       gradientUnits="userSpaceOnUse"
       id="linearGradient3533"
       xlink:href="#linearGradient3352-8"
       inkscape:collect="always" />
    <linearGradient
       gradientTransform="matrix(1.1374904,0,0,1,-52.249665,-1.4621499)"
       y2="546.12701"
       x2="643.61914"
       y1="544.66486"
       x1="337.4856"
       gradientUnits="userSpaceOnUse"
       id="linearGradient3465-7"
       xlink:href="#linearGradient3344-1-1"
       inkscape:collect="always" />
    <linearGradient
       inkscape:collect="always"
       id="linearGradient3344-1-1">
      <stop
         style="stop-color:#00ffff;stop-opacity:1;"
         offset="0"
         id="stop3346-9-6" />
      <stop
         style="stop-color:#00ffff;stop-opacity:0;"
         offset="1"
         id="stop3348-2-6" />
    </linearGradient>
    <linearGradient
       y2="546.12701"
       x2="643.61914"
       y1="544.66486"
       x1="337.4856"
       gradientTransform="matrix(1.2148288,0,0,1,-76.88811,-2.9243029)"
       gradientUnits="userSpaceOnUse"
       id="linearGradient3567"
       xlink:href="#linearGradient3344-1-1"
       inkscape:collect="always" />
    <linearGradient
       gradientTransform="matrix(1.1407357,0,0,1,-46.857798,0.6032656)"
       y2="548.44806"
       x2="525.66925"
       y1="549.91022"
       x1="308.72708"
       gradientUnits="userSpaceOnUse"
       id="linearGradient3431-6"
       xlink:href="#linearGradient3336-0-2"
       inkscape:collect="always" />
    <linearGradient
       id="linearGradient3336-0-2">
      <stop
         style="stop-color:#00dcff;stop-opacity:1;"
         offset="0"
         id="stop3338-6-1" />
      <stop
         style="stop-color:#00ffff;stop-opacity:0;"
         offset="1"
         id="stop3340-9-6" />
    </linearGradient>
    <linearGradient
       y2="548.44806"
       x2="525.66925"
       y1="549.91022"
       x1="308.72708"
       gradientTransform="matrix(1.184039,0,0,1,-60.957754,3.5275762)"
       gradientUnits="userSpaceOnUse"
       id="linearGradient3601"
       xlink:href="#linearGradient3336-0-2"
       inkscape:collect="always" />
    <linearGradient
       inkscape:collect="always"
       xlink:href="#linearGradient3296-9"
       id="linearGradient3302-2"
       x1="66.187202"
       y1="543.86676"
       x2="324.04922"
       y2="543.86676"
       gradientUnits="userSpaceOnUse" />
    <linearGradient
       id="linearGradient3296-9">
      <stop
         style="stop-color:#00e4ff;stop-opacity:1;"
         offset="0"
         id="stop3298-5" />
      <stop
         style="stop-color:#00ffff;stop-opacity:0;"
         offset="1"
         id="stop3300-5" />
    </linearGradient>
    <linearGradient
       gradientTransform="translate(9.5832149,6.6466931)"
       y2="543.86676"
       x2="324.04922"
       y1="543.86676"
       x1="66.187202"
       gradientUnits="userSpaceOnUse"
       id="linearGradient3635"
       xlink:href="#linearGradient3296-9"
       inkscape:collect="always" />
    <linearGradient
       gradientTransform="translate(9.5832149,6.6466931)"
       y2="543.86676"
       x2="324.04922"
       y1="543.86676"
       x1="66.187202"
       gradientUnits="userSpaceOnUse"
       id="linearGradient3635-2"
       xlink:href="#linearGradient3296-9-9"
       inkscape:collect="always" />
    <linearGradient
       id="linearGradient3296-9-9">
      <stop
         style="stop-color:#00e4ff;stop-opacity:1;"
         offset="0"
         id="stop3298-5-2" />
      <stop
         style="stop-color:#00ffff;stop-opacity:0;"
         offset="1"
         id="stop3300-5-0" />
    </linearGradient>
    <linearGradient
       y2="543.86676"
       x2="324.04922"
       y1="543.86676"
       x1="66.187202"
       gradientTransform="translate(15.431827,2.2602339)"
       gradientUnits="userSpaceOnUse"
       id="linearGradient3669"
       xlink:href="#linearGradient3296-9-9"
       inkscape:collect="always" />
    <linearGradient
       gradientTransform="translate(9.5832149,6.6466931)"
       y2="543.86676"
       x2="324.04922"
       y1="543.86676"
       x1="66.187202"
       gradientUnits="userSpaceOnUse"
       id="linearGradient3635-9"
       xlink:href="#linearGradient3296-9-5"
       inkscape:collect="always" />
    <linearGradient
       id="linearGradient3296-9-5">
      <stop
         style="stop-color:#00e4ff;stop-opacity:1;"
         offset="0"
         id="stop3298-5-0" />
      <stop
         style="stop-color:#00ffff;stop-opacity:0;"
         offset="1"
         id="stop3300-5-9" />
    </linearGradient>
    <linearGradient
       y2="543.86676"
       x2="324.04922"
       y1="543.86676"
       x1="66.187202"
       gradientTransform="translate(11.045368,0.79808094)"
       gradientUnits="userSpaceOnUse"
       id="linearGradient3669-8"
       xlink:href="#linearGradient3296-9-5"
       inkscape:collect="always" />
    <linearGradient
       gradientTransform="translate(9.5832149,6.6466931)"
       y2="543.86676"
       x2="324.04922"
       y1="543.86676"
       x1="66.187202"
       gradientUnits="userSpaceOnUse"
       id="linearGradient3635-8"
       xlink:href="#linearGradient3296-9-1"
       inkscape:collect="always" />
    <linearGradient
       id="linearGradient3296-9-1">
      <stop
         style="stop-color:#00e4ff;stop-opacity:1;"
         offset="0"
         id="stop3298-5-9" />
      <stop
         style="stop-color:#00ffff;stop-opacity:0;"
         offset="1"
         id="stop3300-5-6" />
    </linearGradient>
    <linearGradient
       y2="543.86676"
       x2="324.04922"
       y1="543.86676"
       x1="66.187202"
       gradientTransform="translate(12.507521,3.7223867)"
       gradientUnits="userSpaceOnUse"
       id="linearGradient3669-3"
       xlink:href="#linearGradient3296-9-1"
       inkscape:collect="always" />
    <linearGradient
       inkscape:collect="always"
       xlink:href="#linearGradient3296-5"
       id="linearGradient3302-7"
       x1="66.187202"
       y1="543.86676"
       x2="324.04922"
       y2="543.86676"
       gradientUnits="userSpaceOnUse"
       gradientTransform="translate(-52.637508,2.924306)" />
    <linearGradient
       id="linearGradient3296-5">
      <stop
         style="stop-color:#00e4ff;stop-opacity:1;"
         offset="0"
         id="stop3298-1" />
      <stop
         style="stop-color:#00ffff;stop-opacity:0;"
         offset="1"
         id="stop3300-6" />
    </linearGradient>
    <linearGradient
       y2="543.86676"
       x2="324.04922"
       y1="543.86676"
       x1="66.187202"
       gradientTransform="translate(-66.187201,-315.41979)"
       gradientUnits="userSpaceOnUse"
       id="linearGradient3082"
       xlink:href="#linearGradient3296-5"
       inkscape:collect="always" />
    <linearGradient
       inkscape:collect="always"
       xlink:href="#linearGradient3296-5"
       id="linearGradient3135"
       gradientUnits="userSpaceOnUse"
       gradientTransform="matrix(1.0793841,0,0,1,-13.216832,2.2602324)"
       x1="66.187202"
       y1="543.86676"
       x2="324.04922"
       y2="543.86676" />
    <linearGradient
       inkscape:collect="always"
       xlink:href="#linearGradient3296-92"
       id="linearGradient3302-73"
       x1="66.187202"
       y1="543.86676"
       x2="324.04922"
       y2="543.86676"
       gradientUnits="userSpaceOnUse"
       gradientTransform="translate(-52.637508,2.924306)" />
    <linearGradient
       id="linearGradient3296-92">
      <stop
         style="stop-color:#00e4ff;stop-opacity:1;"
         offset="0"
         id="stop3298-4" />
      <stop
         style="stop-color:#00ffff;stop-opacity:0;"
         offset="1"
         id="stop3300-4" />
    </linearGradient>
    <linearGradient
       y2="543.86676"
       x2="324.04922"
       y1="543.86676"
       x1="66.187202"
       gradientTransform="translate(592.98227,81.216495)"
       gradientUnits="userSpaceOnUse"
       id="linearGradient3082-3"
       xlink:href="#linearGradient3296-92"
       inkscape:collect="always" />
  </defs>
  <sodipodi:namedview
     pagecolor="#ffffff"
     bordercolor="#666666"
     borderopacity="1"
     objecttolerance="10"
     gridtolerance="10"
     guidetolerance="10"
     inkscape:pageopacity="0"
     inkscape:pageshadow="2"
     inkscape:window-width="1280"
     inkscape:window-height="948"
     id="namedview8"
     showgrid="false"
     inkscape:zoom="0.68392295"
     inkscape:cx="452.46382"
     inkscape:cy="458.62474"
     inkscape:window-x="0"
     inkscape:window-y="24"
     inkscape:window-maximized="1"
     inkscape:current-layer="svg2" />
  <path
     sodipodi:type="arc"
     style="fill:#008000"
     id="path3007"
     sodipodi:cx="429.14191"
     sodipodi:cy="603.151"
     sodipodi:rx="307.7832"
     sodipodi:ry="315.82504"
     d="m 736.92511,603.151 a 307.7832,315.82504 0 1 1 -615.56641,0 307.7832,315.82504 0 1 1 615.56641,0 z"
     transform="matrix(1.0023753,0,0,0.96470195,-98.252512,-36.283141)" />
  <path
     style="fill:url(#linearGradient3302)"
     d="m 173.99786,675.44212 -0.26813,-97.68317 -40.39248,32.36458 c -22.21586,17.80051 -40.769399,32.36456 -41.230049,32.36456 -0.46068,0 -6.33676,-4.79286 -13.05799,-10.65082 l -12.22039,-10.65083 19.70872,-15.91181 c 10.83981,-8.75149 33.652869,-27.10526 50.695699,-40.78614 l 30.98698,-24.87433 -51.01651,-41.7569 -51.016509,-41.75688 13.19392,-10.79749 13.19391,-10.79747 40.518839,33.23269 c 22.28535,18.27799 40.66165,33.23269 40.83623,33.23269 0.17457,0 0.43813,-41.74897 0.58573,-92.7755 l 0.26833,-92.77551 74.33725,70.3708 c 40.88549,38.70394 74.33724,70.67614 74.33724,71.04933 0,0.37319 -23.16117,19.26364 -51.46928,41.97877 l -51.4693,41.30022 51.76456,42.36892 51.76458,42.36891 -73.93608,73.31822 c -40.66483,40.32502 -74.36605,73.68545 -74.89159,74.13428 -0.5714,0.48801 -1.06333,-38.45279 -1.22368,-96.86712 l 0,0 z m 68.27975,-17.06758 c 16.599,-16.4163 30.39046,-30.29836 30.64769,-30.84905 0.25722,-0.55068 -13.5343,-12.4539 -30.64783,-26.4516 l -31.1155,-25.45037 0,56.29941 c 0,30.96468 0.21051,56.29941 0.46781,56.29941 0.25729,0 14.04881,-13.43151 30.64783,-29.8478 z m 1.52397,-179.27048 29.66128,-24.02405 -5.65322,-5.31492 c -3.10927,-2.9232 -16.72141,-15.79926 -30.2492,-28.61347 -13.52779,-12.81424 -25.00154,-23.42803 -25.49723,-23.58623 -0.49568,-0.1582 -0.90124,23.83922 -0.90124,53.32759 0,45.92854 0.21349,53.5163 1.48915,52.92517 0.81904,-0.37954 14.83674,-11.50089 31.15046,-24.71409 l 0,0 z"
     id="path2989"
     inkscape:connector-curvature="0" />
  <path
     style="fill:url(#linearGradient3342)"
     id="path3039"
     d="m 333.34989,367.34194 c 2.34132,1.84175 4.39303,3.9687 6.56629,5.98158 2.77182,2.23627 5.5782,4.43149 8.36703,6.64821 3.14448,2.68593 6.24568,5.41239 9.2754,8.21833 3.25027,3.08191 6.50772,6.14886 9.90146,9.0845 2.75323,2.49323 5.41399,5.08062 7.73404,7.955 2.12259,2.76867 4.43163,5.39528 6.6758,8.0719 1.89553,2.25607 3.97532,4.35366 5.86633,6.61251 1.67183,1.97714 2.93138,4.18578 4.67495,6.11208 2.09711,2.1497 3.74119,4.58017 5.24716,7.12993 1.408,2.49326 2.60239,5.10271 4.32936,7.41299 1.67106,2.29842 3.12002,4.73164 4.66298,7.10813 1.4852,2.11674 3.10808,4.14178 4.60355,6.25156 1.33615,2.03593 2.28208,4.27276 3.51935,6.36066 0.98821,1.76296 2.31618,3.33695 3.59791,4.91178 1.75592,1.88124 2.73112,4.24888 3.94157,6.45638 1.51527,2.41132 2.35746,5.11776 3.54042,7.67655 1.20425,2.96713 2.82308,5.74948 4.2569,8.61264 1.17394,2.61162 2.04323,5.3441 2.91241,8.06106 1.02395,2.73078 1.67796,5.57624 2.33293,8.40576 0.60059,2.67602 1.7361,5.19985 2.62004,7.79402 0.73261,2.74201 1.4705,5.48206 2.08964,8.25032 0.91334,3.87624 1.30689,7.81769 1.55833,11.77579 0.34315,4.01163 0.91143,7.99716 1.40657,11.99244 0.43783,4.42907 0.59636,8.87658 0.69149,13.32265 0.016,3.99775 0.0531,7.99542 0.0669,11.9932 -0.0642,3.33951 -0.62935,6.62869 -1.15633,9.92007 -0.4881,3.51852 -1.16199,7.01199 -1.92648,10.48394 -0.77622,3.74967 -1.54246,7.50012 -2.36839,11.2403 -0.72123,3.46627 -1.85414,6.80741 -3.13791,10.11144 -1.10022,3.24191 -2.86342,6.19723 -4.45404,9.22461 -1.63166,3.38245 -3.19486,6.79421 -4.91177,10.13806 -1.92306,3.36039 -3.72493,6.79051 -5.73063,10.10613 -2.16885,3.28963 -4.35216,6.57082 -6.46518,9.894 -2.06918,3.31412 -4.29668,6.53391 -6.54061,9.74035 -2.46029,3.37846 -5.15541,6.59548 -7.91113,9.75439 -2.60701,2.86249 -5.28649,5.6625 -7.9374,8.48731 -2.72322,2.97436 -5.64028,5.77599 -8.42885,8.69202 -2.38586,2.94422 -5.43516,5.1998 -8.54007,7.38834 -2.69352,1.97859 -5.36384,3.98593 -8.04328,5.98198 -1.65325,1.43801 -3.21263,2.9179 -5.06968,4.1193 -1.80248,1.05046 -3.45308,2.29445 -5.13408,3.50824 -2.36068,1.6223 -4.84273,3.07968 -7.30465,4.55553 -1.9408,1.06307 -3.64915,2.39522 -5.28199,3.84497 -5.52529,5.28249 -11.58825,7.21542 -19.11948,11.01983 -5.25162,1.42496 -10.45822,2.96967 -15.59966,4.72575 0,0 10.69799,-8.00497 10.69799,-8.00497 l 0,0 c 5.21164,-1.68157 10.48695,-3.16014 15.70871,-4.8115 -15.31987,9.41196 -10.57468,6.67888 -6.96917,4.05953 0.26812,-0.19479 0.59338,-0.31205 0.85176,-0.51863 0.50234,-0.40161 0.82151,-0.98798 1.3419,-1.37334 1.77742,-1.35463 3.24281,-3.06265 5.29302,-4.09117 2.47177,-1.38072 4.84057,-2.92868 7.26208,-4.38827 1.68998,-1.22974 3.30383,-2.53123 5.11523,-3.59417 1.19029,-0.73673 2.50718,-1.40908 3.52695,-2.37059 0.27168,-0.25616 0.46544,-0.58057 0.72831,-0.84508 0.28219,-0.28394 0.60204,-0.53097 0.90306,-0.79645 2.63895,-2.12783 5.53459,-3.95935 8.16198,-6.10711 3.10148,-2.10685 6.25697,-4.22353 8.63277,-7.11582 2.72847,-2.97401 5.73162,-5.70563 8.44393,-8.69631 2.63474,-2.83339 5.29828,-5.63578 7.94935,-8.45488 2.79973,-3.10496 5.46981,-6.31636 7.99635,-9.63062 2.26024,-3.16755 4.41887,-6.4032 6.53496,-9.66083 2.08237,-3.3468 4.28554,-6.62336 6.47954,-9.90321 2.12525,-3.21801 3.72832,-6.72927 5.75726,-10.00548 1.78561,-3.29388 3.31147,-6.7069 4.88264,-10.09868 1.47486,-3.04921 3.42559,-5.88653 4.51345,-9.1081 1.24975,-3.27327 2.53655,-6.51692 3.26259,-9.95005 0.81316,-3.74692 1.64601,-7.48828 2.3721,-11.25201 0.79697,-3.42918 1.4156,-6.89635 1.89063,-10.37936 0.53597,-3.23937 1.14443,-6.46694 1.28978,-9.75267 0.0219,-4.00028 0.0733,-8.00118 10e-4,-12.00124 -0.0519,-4.40594 -0.13163,-8.81955 -0.62237,-13.20454 -0.48891,-4.02168 -1.12219,-8.02497 -1.43861,-12.06561 -0.22325,-3.88075 -0.58588,-7.7617 -1.57609,-11.54273 -0.57699,-2.73 -1.39775,-5.39892 -2.06651,-8.10807 -0.84435,-2.65492 -2.02457,-5.20783 -2.65544,-7.92465 -0.59137,-2.80228 -1.28047,-5.60164 -2.29242,-8.29335 -0.84096,-2.66014 -1.68206,-5.33164 -2.75107,-7.91578 -1.4275,-2.87427 -3.08835,-5.64398 -4.31338,-8.61109 -1.22262,-2.51276 -1.97116,-5.23077 -3.5176,-7.59908 -1.17683,-2.13527 -2.13625,-4.41734 -3.86839,-6.21539 -1.33208,-1.6214 -2.69054,-3.25772 -3.68062,-5.09773 -1.22153,-2.05848 -2.12909,-4.27533 -3.46397,-6.27294 -1.48482,-2.13394 -3.10494,-4.17959 -4.58685,-6.31577 -1.53241,-2.35077 -2.95378,-4.76792 -4.60955,-7.04283 -1.74104,-2.35871 -2.98552,-4.99511 -4.42252,-7.52796 -1.44163,-2.48191 -3.02821,-4.84291 -5.09566,-6.90063 -1.74657,-1.94446 -3.07928,-4.13128 -4.72953,-6.14402 -1.86876,-2.26778 -3.91599,-4.38678 -5.78208,-6.65758 -2.23355,-2.69075 -4.57153,-5.30119 -6.66989,-8.09344 -2.29396,-2.78945 -4.90492,-5.30923 -7.55113,-7.7899 -3.40191,-2.94232 -6.592,-6.09009 -9.89775,-9.13066 -3.04273,-2.75062 -6.15109,-5.43097 -9.27243,-8.09882 -2.85623,-2.20305 -5.70686,-4.41462 -8.48268,-6.71107 -2.19051,-2.03134 -4.30118,-4.13732 -6.73622,-5.91003 0,0 12.07705,-7.11185 12.07705,-7.11185 z"
     inkscape:connector-curvature="0" />
  <path
     style="fill:url(#linearGradient3350)"
     id="path3039-4"
     d="m 368.50587,300.68617 c 2.94964,2.46126 5.53443,5.30365 8.27234,7.99359 3.492,2.98848 7.02753,5.92211 10.54095,8.88447 3.96148,3.5894 7.86844,7.23295 11.68534,10.98273 4.09475,4.11856 8.19855,8.21715 12.47405,12.14026 3.46857,3.33187 6.82065,6.78958 9.7435,10.63082 2.67408,3.69997 5.58305,7.21008 8.4103,10.78703 2.38803,3.01495 5.00819,5.81811 7.39052,8.83677 2.1062,2.64218 3.69301,5.59373 5.88959,8.16799 2.64198,2.8728 4.71323,6.12079 6.61048,9.52822 1.77383,3.33192 3.27854,6.81912 5.45421,9.90649 2.10524,3.07155 3.93067,6.32324 5.87452,9.4991 1.87108,2.82873 3.91562,5.53495 5.79964,8.3544 1.68331,2.72076 2.87501,5.70999 4.43375,8.50019 1.24496,2.35596 2.91797,4.45939 4.53271,6.56395 2.21215,2.51404 3.44072,5.67807 4.96567,8.62812 1.90897,3.2224 2.96998,6.8392 4.46029,10.25871 1.51714,3.96518 3.55658,7.68342 5.36293,11.50966 1.47895,3.49009 2.5741,7.14169 3.66911,10.77255 1.28999,3.64934 2.11393,7.45193 2.93907,11.23321 0.75664,3.57615 2.18718,6.94892 3.30078,10.41569 0.92296,3.66434 1.85257,7.32606 2.63257,11.02548 1.15064,5.18009 1.64645,10.44731 1.96322,15.73681 0.4323,5.36101 1.14823,10.68716 1.77202,16.02633 0.55159,5.91888 0.75131,11.86239 0.87115,17.80399 0.0202,5.34248 0.0669,10.68482 0.0843,16.02734 -0.0808,4.46282 -0.79287,8.85838 -1.45677,13.25688 -0.61492,4.70204 -1.4639,9.37061 -2.42702,14.01043 -0.9779,5.01094 -1.94322,10.02292 -2.98374,15.02119 -0.90862,4.63221 -2.33589,9.09722 -3.9532,13.51262 -1.38608,4.33239 -3.6074,8.28178 -5.61129,12.32748 -2.0556,4.52021 -4.02495,9.07959 -6.18795,13.54821 -2.42271,4.49072 -4.69274,9.07463 -7.21956,13.50552 -2.73236,4.39616 -5.48294,8.78105 -8.14496,13.22204 -2.60679,4.4289 -5.41304,8.73172 -8.23999,13.01671 -3.09952,4.51488 -6.49489,8.814 -9.96659,13.03548 -3.28437,3.82533 -6.66003,7.56719 -9.9997,11.34218 -3.43076,3.97485 -7.10574,7.71886 -10.61883,11.61575 -3.00576,3.93457 -6.84732,6.94886 -10.75895,9.87356 -3.39335,2.64411 -6.75747,5.32667 -10.13308,7.99413 -2.0828,1.92171 -4.04734,3.89939 -6.38688,5.5049 -2.2708,1.40382 -4.35026,3.06624 -6.46802,4.68831 -2.97403,2.16799 -6.10097,4.11559 -9.20254,6.08787 -2.44506,1.42065 -4.59728,3.2009 -6.65436,5.13831 -6.96087,7.05935 -14.59911,9.64246 -24.0871,14.72656 -6.61609,1.90427 -13.17547,3.96857 -19.65276,6.31535 0,0 13.47755,-10.6976 13.47755,-10.6976 l 0,0 c 6.56572,-2.2472 13.21166,-4.22311 19.79013,-6.42994 -19.30027,12.57786 -13.32218,8.92546 -8.77989,5.42503 0.33778,-0.26031 0.74755,-0.41702 1.07306,-0.69308 0.63286,-0.5367 1.03496,-1.32031 1.69056,-1.83528 2.23922,-1.8103 4.08535,-4.09284 6.66824,-5.46732 3.11399,-1.84516 6.09825,-3.91381 9.14892,-5.86437 2.12907,-1.64338 4.16223,-3.38265 6.44427,-4.80312 1.49955,-0.98454 3.15859,-1.88307 4.44331,-3.16799 0.34228,-0.34233 0.58638,-0.77586 0.91755,-1.12934 0.35551,-0.37945 0.75846,-0.70957 1.13769,-1.06435 3.3246,-2.84357 6.97258,-5.29115 10.28262,-8.16136 3.90731,-2.81553 7.88266,-5.6442 10.87574,-9.50937 3.43737,-3.97436 7.2208,-7.62483 10.63783,-11.62147 3.31929,-3.78646 6.67487,-7.5315 10.01474,-11.29885 3.52716,-4.14938 6.89098,-8.44099 10.07396,-12.87007 2.8475,-4.23302 5.56698,-8.55704 8.23288,-12.91045 2.62341,-4.47256 5.399,-8.85125 8.16305,-13.23434 2.67743,-4.30045 4.69701,-8.99279 7.25311,-13.37102 2.24954,-4.40184 4.17185,-8.9629 6.15124,-13.49557 1.85806,-4.07487 4.31563,-7.86658 5.68614,-12.1718 1.57446,-4.37428 3.19559,-8.709 4.11027,-13.29693 1.02444,-5.00728 2.07368,-10.00712 2.98842,-15.03686 1.00404,-4.58264 1.7834,-9.21607 2.38185,-13.87065 0.67523,-4.32901 1.44178,-8.64223 1.62489,-13.03318 0.0276,-5.34585 0.0923,-10.69253 10e-4,-16.03809 -0.0653,-5.88795 -0.16583,-11.78617 -0.78407,-17.64615 -0.61593,-5.37445 -1.41375,-10.72432 -1.81239,-16.1241 -0.28125,-5.18613 -0.7381,-10.37252 -1.98559,-15.42536 -0.72689,-3.6483 -1.76091,-7.21495 -2.60343,-10.83538 -1.06373,-3.54796 -2.55059,-6.95959 -3.34538,-10.59027 -0.74501,-3.74487 -1.61315,-7.48586 -2.88802,-11.08298 -1.05946,-3.55493 -2.1191,-7.12505 -3.46585,-10.57841 -1.7984,-3.84108 -3.89077,-7.54244 -5.43409,-11.50759 -1.54029,-3.35798 -2.48331,-6.99025 -4.43155,-10.15519 -1.48259,-2.8535 -2.69129,-5.90319 -4.87347,-8.30606 -1.67818,-2.16678 -3.3896,-4.35352 -4.63692,-6.81245 -1.53891,-2.75088 -2.68227,-5.71342 -4.36397,-8.38296 -1.8706,-2.85174 -3.91166,-5.58549 -5.77861,-8.4402 -1.93055,-3.1415 -3.72122,-6.37171 -5.80719,-9.41182 -2.1934,-3.15213 -3.76122,-6.67533 -5.57158,-10.06014 -1.8162,-3.31676 -3.81501,-6.47192 -6.41962,-9.2218 -2.20037,-2.59851 -3.87934,-5.52091 -5.95835,-8.21068 -2.3543,-3.03059 -4.93345,-5.86237 -7.28438,-8.89698 -2.81387,-3.59585 -5.75931,-7.08437 -8.40287,-10.81583 -2.88996,-3.72775 -6.1793,-7.09511 -9.51305,-10.41019 -4.28579,-3.93203 -8.30474,-8.13862 -12.46939,-12.20194 -3.83329,-3.67584 -7.74926,-7.25778 -11.68159,-10.82302 -3.59833,-2.94409 -7.18961,-5.89956 -10.68664,-8.96847 -2.75965,-2.71463 -5.41872,-5.52899 -8.48642,-7.89799 0,0 15.2149,-9.50405 15.2149,-9.50405 z"
     inkscape:connector-curvature="0" />
  <path
     style="fill:url(#linearGradient3358)"
     id="path3039-4-5"
     d="m 395.78516,245.12436 c 4.01419,3.0144 7.53186,6.49557 11.25792,9.79004 4.7523,3.6601 9.56387,7.25302 14.34531,10.88113 5.39124,4.39607 10.70825,8.85845 15.90272,13.45094 5.57258,5.04414 11.15751,10.06383 16.97609,14.86861 4.72042,4.08066 9.28231,8.31543 13.26005,13.01994 3.63918,4.53149 7.59806,8.83045 11.4457,13.21126 3.24989,3.69251 6.81568,7.12566 10.05782,10.82271 2.86637,3.23597 5.02587,6.85084 8.01524,10.00362 3.5955,3.51843 6.41429,7.49636 8.99626,11.66955 2.41404,4.08072 4.46183,8.35163 7.42272,12.13284 2.86504,3.76185 5.34928,7.74429 7.9947,11.6339 2.54639,3.46444 5.32882,6.77884 7.89281,10.23191 2.29084,3.33221 3.91263,6.99323 6.03394,10.4105 1.69428,2.88543 3.9711,5.46157 6.16863,8.0391 3.01053,3.07903 4.68251,6.95413 6.75783,10.56716 2.59795,3.94659 4.04187,8.37623 6.07007,12.56421 2.06469,4.8563 4.84019,9.41017 7.29848,14.09629 2.01272,4.27445 3.50312,8.74669 4.99332,13.19354 1.75558,4.46947 2.87688,9.12664 3.99984,13.75772 1.02971,4.37982 2.97653,8.51058 4.49205,12.75645 1.25608,4.48785 2.5212,8.9725 3.5827,13.50331 1.56593,6.34425 2.24068,12.79519 2.67178,19.27343 0.58832,6.56582 1.56263,13.08895 2.41156,19.62802 0.75067,7.24908 1.02245,14.5283 1.18556,21.8052 0.0274,6.54311 0.091,13.08606 0.11466,19.62923 -0.11002,5.46579 -1.07901,10.84918 -1.98252,16.23618 -0.83686,5.75876 -1.99224,11.47653 -3.30297,17.15908 -1.33084,6.13709 -2.64455,12.27543 -4.0606,18.39699 -1.23656,5.67323 -3.17895,11.14168 -5.37998,16.54939 -1.88633,5.30603 -4.90934,10.14299 -7.63645,15.09791 -2.79748,5.53606 -5.47762,11.1201 -8.42125,16.59297 -3.29712,5.49995 -6.38643,11.11403 -9.82521,16.5407 -3.71849,5.38413 -7.4618,10.75446 -11.08457,16.1935 -3.54761,5.42423 -7.36667,10.69404 -11.21391,15.94203 -4.21816,5.52953 -8.83898,10.79483 -13.56366,15.96502 -4.46973,4.68503 -9.06371,9.2678 -13.60871,13.89118 -4.66897,4.86813 -9.67029,9.45356 -14.45129,14.22622 -4.09057,4.8188 -9.31861,8.51053 -14.642,12.0925 -4.61804,3.23833 -9.19631,6.52376 -13.79024,9.7907 -2.83449,2.35358 -5.50806,4.77571 -8.69198,6.74203 -3.09035,1.71932 -5.92032,3.75534 -8.8024,5.74196 -4.04738,2.65521 -8.30289,5.04051 -12.52385,7.45603 -3.3275,1.73991 -6.2565,3.92027 -9.056,6.29307 -9.47314,8.64584 -19.86811,11.80947 -32.78043,18.03614 -9.0039,2.33222 -17.93065,4.86045 -26.74569,7.73464 0,0 18.34176,-13.10174 18.34176,-13.10174 l 0,0 c 8.93538,-2.75221 17.97993,-5.17219 26.93265,-7.87496 -26.26599,15.40453 -18.13033,10.93132 -11.94868,6.64422 0.4597,-0.31881 1.01738,-0.51075 1.46035,-0.84885 0.86127,-0.65731 1.40851,-1.61703 2.3007,-2.24773 3.04738,-2.21712 5.55981,-5.01264 9.07489,-6.69603 4.23787,-2.25982 8.29919,-4.79337 12.45088,-7.18229 2.89748,-2.01271 5.66443,-4.14285 8.77009,-5.88255 2.04075,-1.20581 4.29857,-2.30626 6.04695,-3.87995 0.46581,-0.41927 0.79801,-0.95024 1.2487,-1.38314 0.48382,-0.46474 1.0322,-0.86905 1.54832,-1.30355 4.52446,-3.48262 9.48905,-6.48027 13.99374,-9.99552 5.31749,-3.44827 10.7276,-6.91265 14.80092,-11.64646 4.67796,-4.86755 9.82687,-9.33841 14.47714,-14.23323 4.51729,-4.63741 9.08394,-9.22409 13.62921,-13.83811 4.80014,-5.0819 9.378,-10.33798 13.70976,-15.76244 3.87519,-5.18432 7.57619,-10.4801 11.20423,-15.81189 3.57022,-5.47771 7.34757,-10.84043 11.10922,-16.20856 3.64374,-5.26692 6.39218,-11.01379 9.87081,-16.37597 3.06145,-5.39109 5.67754,-10.97718 8.37131,-16.5285 2.52866,-4.99063 5.87319,-9.63449 7.73835,-14.90726 2.14268,-5.35732 4.34892,-10.66621 5.59372,-16.28522 1.39417,-6.13259 2.82207,-12.25608 4.06698,-18.41616 1.36639,-5.61253 2.42705,-11.28726 3.24149,-16.98789 0.91893,-5.30189 1.96212,-10.58445 2.21132,-15.96221 0.0375,-6.54725 0.12563,-13.09552 9.9e-4,-19.64243 -0.089,-7.21117 -0.22568,-14.43493 -1.06704,-21.61186 -0.83823,-6.58228 -1.924,-13.13445 -2.46651,-19.74774 -0.38277,-6.35167 -1.00448,-12.70362 -2.70221,-18.89201 -0.98923,-4.4682 -2.39644,-8.8364 -3.54304,-13.27048 -1.44765,-4.34531 -3.47114,-8.52365 -4.55277,-12.97028 -1.01389,-4.58647 -2.19536,-9.16821 -3.93034,-13.57372 -1.44184,-4.35385 -2.88391,-8.72631 -4.71673,-12.95576 -2.44745,-4.7043 -5.295,-9.23749 -7.3953,-14.09375 -2.09622,-4.11264 -3.37959,-8.56121 -6.03097,-12.43743 -2.01767,-3.49479 -3.66261,-7.22984 -6.63237,-10.17272 -2.28384,-2.65373 -4.61293,-5.33192 -6.31043,-8.34346 -2.09432,-3.36911 -3.65034,-6.99743 -5.93898,-10.2669 -2.54572,-3.49263 -5.32344,-6.84076 -7.86418,-10.33702 -2.62731,-3.84751 -5.06427,-7.80368 -7.90309,-11.527 -2.98502,-3.86052 -5.11868,-8.17551 -7.58242,-12.32102 -2.4717,-4.06214 -5.1919,-7.92638 -8.73654,-11.29426 -2.99451,-3.18249 -5.27944,-6.76165 -8.1088,-10.05592 -3.204,-3.71165 -6.71399,-7.17984 -9.91341,-10.89644 -3.82943,-4.40396 -7.8379,-8.67649 -11.43554,-13.24654 -3.93301,-4.5655 -8.4095,-8.68963 -12.94645,-12.74973 -5.83258,-4.81569 -11.30202,-9.96766 -16.96974,-14.94415 -5.21677,-4.50193 -10.54607,-8.88886 -15.89762,-13.25533 -4.89701,-3.60573 -9.78444,-7.2254 -14.54359,-10.98401 -3.75563,-3.3247 -7.3744,-6.77155 -11.54928,-9.67295 0,0 20.70615,-11.63995 20.70615,-11.63995 z"
     inkscape:connector-curvature="0" />
  <path
     style="fill:url(#linearGradient3431)"
     id="path3039-8"
     d="m 332.60663,367.94521 c 2.59478,1.84175 4.86861,3.9687 7.27715,5.98158 3.07189,2.23627 6.18208,4.43149 9.27283,6.64821 3.48489,2.68593 6.92182,5.41239 10.27954,8.21833 3.60213,3.08191 7.21223,6.14886 10.97337,9.0845 3.05128,2.49323 6.0001,5.08062 8.57131,7.955 2.35238,2.76867 4.91139,5.39528 7.39852,8.0719 2.10072,2.25607 4.40567,4.35366 6.5014,6.61251 1.85282,1.97714 3.24873,4.18578 5.18105,6.11208 2.32414,2.1497 4.14621,4.58017 5.81521,7.12993 1.56043,2.49326 2.88412,5.10271 4.79805,7.41299 1.85197,2.29842 3.45779,4.73164 5.16779,7.10813 1.64598,2.11674 3.44455,4.14178 5.10192,6.25156 1.48079,2.03593 2.52913,4.27276 3.90035,6.36066 1.09518,1.76296 2.56692,3.33695 3.98741,4.91178 1.94601,1.88124 3.02679,4.24888 4.36827,6.45638 1.67931,2.41132 2.61268,5.11776 3.9237,7.67655 1.33463,2.96713 3.1287,5.74948 4.71775,8.61264 1.30103,2.61162 2.26443,5.3441 3.2277,8.06106 1.1348,2.73078 1.85961,5.57624 2.58549,8.40576 0.66561,2.67602 1.92405,5.19985 2.90368,7.79402 0.81193,2.74201 1.62969,5.48206 2.31586,8.25032 1.01222,3.87624 1.44838,7.81769 1.72703,11.77579 0.38031,4.01163 1.0101,7.99716 1.55885,11.99244 0.48522,4.42907 0.66092,8.87658 0.76634,13.32265 0.0178,3.99775 0.0589,7.99542 0.0741,11.9932 -0.0711,3.33951 -0.69748,6.62869 -1.28151,9.92007 -0.54094,3.51852 -1.28779,7.01199 -2.13504,10.48394 -0.86025,3.74967 -1.70944,7.50012 -2.62479,11.2403 -0.7993,3.46627 -2.05486,6.80741 -3.47762,10.11144 -1.21932,3.24191 -3.1734,6.19723 -4.93622,9.22461 -1.8083,3.38245 -3.54073,6.79421 -5.44351,10.13806 -2.13124,3.36039 -4.12818,6.79051 -6.35101,10.10613 -2.40365,3.28963 -4.82333,6.57082 -7.16509,9.894 -2.29319,3.31412 -4.76183,6.53391 -7.24869,9.74035 -2.72663,3.37846 -5.71352,6.59548 -8.76757,9.75439 -2.88924,2.86249 -5.8588,5.6625 -8.7967,8.48731 -3.01802,2.97436 -6.25088,5.77599 -9.34134,8.69202 -2.64414,2.94422 -6.02356,5.1998 -9.4646,7.38834 -2.98511,1.97859 -5.94452,3.98593 -8.91403,5.98198 -1.83223,1.43801 -3.56043,2.9179 -5.61851,4.1193 -1.99761,1.05046 -3.82691,2.29445 -5.68989,3.50824 -2.61624,1.6223 -5.36699,3.07968 -8.09544,4.55553 -2.1509,1.06307 -4.0442,2.39522 -5.85381,3.84497 -6.12344,5.28249 -12.84277,7.21542 -21.18932,11.01983 -5.82015,1.42496 -11.59041,2.96967 -17.28845,4.72575 0,0 11.85614,-8.00497 11.85614,-8.00497 l 0,0 c 5.77584,-1.68157 11.62225,-3.16014 17.40931,-4.8115 -16.97838,9.41196 -11.71948,6.67888 -7.72365,4.05953 0.29715,-0.19479 0.65762,-0.31205 0.94398,-0.51863 0.55671,-0.40161 0.91043,-0.98798 1.48716,-1.37334 1.96985,-1.35463 3.59388,-3.06265 5.86604,-4.09117 2.73935,-1.38072 5.3646,-2.92868 8.04826,-4.38827 1.87293,-1.22974 3.6615,-2.53123 5.669,-3.59417 1.31914,-0.73673 2.7786,-1.40908 3.90876,-2.37059 0.3011,-0.25616 0.51583,-0.58057 0.80716,-0.84508 0.31274,-0.28394 0.66721,-0.53097 1.00083,-0.79645 2.92463,-2.12783 6.13375,-3.95935 9.04558,-6.10711 3.43724,-2.10685 6.93434,-4.22353 9.56734,-7.11582 3.02384,-2.97401 6.35211,-5.70563 9.35805,-8.69631 2.91997,-2.83339 5.87186,-5.63578 8.80993,-8.45488 3.10283,-3.10496 6.06196,-6.31636 8.86202,-9.63062 2.50493,-3.16755 4.89725,-6.4032 7.24242,-9.66083 2.3078,-3.3468 4.74949,-6.62336 7.181,-9.90321 2.35533,-3.21801 4.13195,-6.72927 6.38054,-10.00548 1.97891,-3.29388 3.66997,-6.7069 5.41123,-10.09868 1.63452,-3.04921 3.79643,-5.88653 5.00206,-9.1081 1.38504,-3.27327 2.81115,-6.51692 3.61579,-9.95005 0.90119,-3.74692 1.82421,-7.48828 2.6289,-11.25201 0.88325,-3.42918 1.56886,-6.89635 2.09531,-10.37936 0.59399,-3.23937 1.26832,-6.46694 1.42941,-9.75267 0.0243,-4.00028 0.0812,-8.00118 9.7e-4,-12.00124 -0.0575,-4.40594 -0.14587,-8.81955 -0.68975,-13.20454 -0.54184,-4.02168 -1.24367,-8.02497 -1.59434,-12.06561 -0.24742,-3.88075 -0.64931,-7.7617 -1.74673,-11.54273 -0.63945,-2.73 -1.54906,-5.39892 -2.29022,-8.10807 -0.93576,-2.65492 -2.24375,-5.20783 -2.94291,-7.92465 -0.65539,-2.80228 -1.41909,-5.60164 -2.5406,-8.29335 -0.93199,-2.66014 -1.86415,-5.33164 -3.04889,-7.91578 -1.58204,-2.87427 -3.42269,-5.64398 -4.78034,-8.61109 -1.35497,-2.51276 -2.18455,-5.23077 -3.89841,-7.59908 -1.30423,-2.13527 -2.36752,-4.41734 -4.28717,-6.21539 -1.47629,-1.6214 -2.98182,-3.25772 -4.07908,-5.09773 -1.35377,-2.05848 -2.35958,-4.27533 -3.83897,-6.27294 -1.64557,-2.13394 -3.44107,-4.17959 -5.08342,-6.31577 -1.69831,-2.35077 -3.27354,-4.76792 -5.10857,-7.04283 -1.92952,-2.35871 -3.30873,-4.99511 -4.9013,-7.52796 -1.5977,-2.48191 -3.35603,-4.84291 -5.6473,-6.90063 -1.93565,-1.94446 -3.41264,-4.13128 -5.24154,-6.14402 -2.07107,-2.26778 -4.33993,-4.38678 -6.40804,-6.65758 -2.47535,-2.69075 -5.06643,-5.30119 -7.39196,-8.09344 -2.5423,-2.78945 -5.43592,-5.30923 -8.3686,-7.7899 -3.77019,-2.94232 -7.30564,-6.09009 -10.96927,-9.13066 -3.37213,-2.75062 -6.81699,-5.43097 -10.27624,-8.09882 -3.16544,-2.20305 -6.32468,-4.41462 -9.401,-6.71107 -2.42765,-2.03134 -4.76682,-4.13732 -7.46547,-5.91003 0,0 13.38449,-7.11185 13.38449,-7.11185 z"
     inkscape:connector-curvature="0" />
  <path
     style="fill:url(#linearGradient3465)"
     id="path3039-4-0"
     d="m 366.92223,299.22402 c 3.35519,2.46126 6.29536,5.30365 9.40971,7.99359 3.97212,2.98848 7.99375,5.92211 11.99023,8.88447 4.50614,3.5894 8.95027,7.23295 13.29196,10.98273 4.65774,4.11856 9.32577,8.21715 14.18911,12.14026 3.94547,3.33187 7.75843,6.78958 11.08314,10.63082 3.04174,3.69997 6.35067,7.21008 9.56664,10.78703 2.71636,3.01495 5.69677,5.81811 8.40664,8.83677 2.39579,2.64218 4.20077,5.59373 6.69936,8.16799 3.00522,2.8728 5.36125,6.12079 7.51935,9.52822 2.01772,3.33192 3.72931,6.81912 6.20411,9.90649 2.39469,3.07155 4.4711,6.32324 6.68221,9.4991 2.12834,2.82873 4.45398,5.53495 6.59704,8.3544 1.91475,2.72076 3.2703,5.70999 5.04335,8.50019 1.41613,2.35596 3.31916,4.45939 5.15591,6.56395 2.5163,2.51404 3.91379,5.67807 5.6484,8.62812 2.17144,3.2224 3.37833,6.8392 5.07354,10.25871 1.72573,3.96518 4.04558,7.68342 6.10028,11.50966 1.68229,3.49009 2.92802,7.14169 4.17358,10.77255 1.46735,3.64934 2.40458,7.45193 3.34316,11.23321 0.86068,3.57615 2.4879,6.94892 3.75461,10.41569 1.04986,3.66434 2.10728,7.32606 2.99452,11.02548 1.30885,5.18009 1.87282,10.44731 2.23315,15.73681 0.49173,5.36101 1.3061,10.68716 2.01565,16.02633 0.62743,5.91888 0.85461,11.86239 0.99093,17.80399 0.023,5.34248 0.0761,10.68482 0.0959,16.02734 -0.0919,4.46282 -0.90188,8.85838 -1.65706,13.25688 -0.69947,4.70204 -1.66518,9.37061 -2.76072,14.01043 -1.11235,5.01094 -2.21039,10.02292 -3.39397,15.02119 -1.03355,4.63221 -2.65705,9.09722 -4.49673,13.51262 -1.57665,4.33239 -4.10338,8.28178 -6.38279,12.32748 -2.33822,4.52021 -4.57834,9.07959 -7.03873,13.54821 -2.75581,4.49072 -5.33795,9.07463 -8.21218,13.50552 -3.10803,4.39616 -6.23679,8.78105 -9.26482,13.22204 -2.96519,4.4289 -6.15728,8.73172 -9.37291,13.01671 -3.52567,4.51488 -7.38787,8.814 -11.3369,13.03548 -3.73594,3.82533 -7.57572,7.56719 -11.37456,11.34218 -3.90246,3.97485 -8.08271,7.71886 -12.07882,11.61575 -3.41902,3.93457 -7.78876,6.94886 -12.2382,9.87356 -3.8599,2.64411 -7.68656,5.32667 -11.52628,7.99413 -2.36917,1.92171 -4.60381,3.89939 -7.26502,5.5049 -2.58301,1.40382 -4.94837,3.06624 -7.35731,4.68831 -3.38293,2.16799 -6.93979,4.11559 -10.4678,6.08787 -2.78123,1.42065 -5.22936,3.2009 -7.56927,5.13831 -7.91792,7.05935 -16.60635,9.64246 -27.39884,14.72656 -7.52574,1.90427 -14.98697,3.96857 -22.35483,6.31535 0,0 15.33058,-10.6976 15.33058,-10.6976 l 0,0 c 7.46845,-2.2472 15.02814,-4.22311 22.51109,-6.42994 -21.95387,12.57786 -15.15385,8.92546 -9.98704,5.42503 0.38422,-0.26031 0.85033,-0.41702 1.22059,-0.69308 0.71987,-0.5367 1.17726,-1.32031 1.923,-1.83528 2.54709,-1.8103 4.64704,-4.09284 7.58506,-5.46732 3.54213,-1.84516 6.9367,-3.91381 10.40681,-5.86437 2.42179,-1.64338 4.73449,-3.38265 7.33029,-4.80312 1.70573,-0.98454 3.59287,-1.88307 5.05422,-3.16799 0.38934,-0.34233 0.66701,-0.77586 1.04371,-1.12934 0.40439,-0.37945 0.86274,-0.70957 1.29411,-1.06435 3.7817,-2.84357 7.93124,-5.29115 11.69638,-8.16136 4.44453,-2.81553 8.96645,-5.6442 12.37105,-9.50937 3.90998,-3.97436 8.21359,-7.62483 12.10043,-11.62147 3.77566,-3.78646 7.5926,-7.5315 11.39167,-11.29885 4.01211,-4.14938 7.83843,-8.44099 11.45904,-12.87007 3.239,-4.23302 6.33238,-8.55704 9.36482,-12.91045 2.9841,-4.47256 6.14131,-8.85125 9.28539,-13.23434 3.04555,-4.30045 5.3428,-8.99279 8.25034,-13.37102 2.55883,-4.40184 4.74544,-8.9629 6.99698,-13.49557 2.11352,-4.07487 4.90899,-7.86658 6.46793,-12.1718 1.79093,-4.37428 3.63495,-8.709 4.67539,-13.29693 1.16529,-5.00728 2.35879,-10.00712 3.3993,-15.03686 1.14209,-4.58264 2.0286,-9.21607 2.70933,-13.87065 0.76807,-4.32901 1.64001,-8.64223 1.8483,-13.03318 0.0314,-5.34585 0.10499,-10.69253 10e-4,-16.03809 -0.0743,-5.88795 -0.18863,-11.78617 -0.89188,-17.64615 -0.70061,-5.37445 -1.60812,-10.72432 -2.06157,-16.1241 -0.31992,-5.18613 -0.83958,-10.37252 -2.25859,-15.42536 -0.82683,-3.6483 -2.00302,-7.21495 -2.96138,-10.83538 -1.20998,-3.54796 -2.90127,-6.95959 -3.80534,-10.59027 -0.84744,-3.74487 -1.83494,-7.48586 -3.28509,-11.08298 -1.20513,-3.55493 -2.41046,-7.12505 -3.94237,-10.57841 -2.04567,-3.84108 -4.42572,-7.54244 -6.18123,-11.50759 -1.75206,-3.35798 -2.82474,-6.99025 -5.04084,-10.15519 -1.68644,-2.8535 -3.06132,-5.90319 -5.54353,-8.30606 -1.90891,-2.16678 -3.85564,-4.35352 -5.27445,-6.81245 -1.7505,-2.75088 -3.05106,-5.71342 -4.96398,-8.38296 -2.12778,-2.85174 -4.44947,-5.58549 -6.57311,-8.4402 -2.19598,-3.1415 -4.23285,-6.37171 -6.60562,-9.41182 -2.49497,-3.15213 -4.27835,-6.67533 -6.33762,-10.06014 -2.06591,-3.31676 -4.33954,-6.47192 -7.30226,-9.2218 -2.5029,-2.59851 -4.41271,-5.52091 -6.77756,-8.21068 -2.678,-3.03059 -5.61176,-5.86237 -8.28592,-8.89698 -3.20075,-3.59585 -6.55116,-7.08437 -9.55818,-10.81583 -3.2873,-3.72775 -7.02889,-7.09511 -10.821,-10.41019 -4.87505,-3.93203 -9.44657,-8.13862 -14.18381,-12.20194 -4.36034,-3.67584 -8.81471,-7.25778 -13.2877,-10.82302 -4.09307,-2.94409 -8.17811,-5.89956 -12.15595,-8.96847 -3.13908,-2.71463 -6.16374,-5.52899 -9.65322,-7.89799 0,0 17.3068,-9.50405 17.3068,-9.50405 z"
     inkscape:connector-curvature="0" />
  <path
     style="fill:url(#linearGradient3499)"
     id="path3039-4-5-9"
     d="m 404.30733,245.85543 c 4.54647,3.0144 8.53058,6.49557 12.75071,9.79004 5.38246,3.6601 10.83204,7.25302 16.24749,10.88113 6.10612,4.39607 12.12816,8.85845 18.01142,13.45094 6.3115,5.04414 12.63698,10.06383 19.2271,14.86861 5.34635,4.08066 10.51314,8.31543 15.01833,13.01994 4.12173,4.53149 8.60556,8.83045 12.96339,13.21126 3.68083,3.69251 7.71944,7.12566 11.39148,10.82271 3.24645,3.23597 5.6923,6.85084 9.07806,10.00362 4.07226,3.51843 7.26482,7.49636 10.18916,11.66955 2.73414,4.08072 5.05347,8.35163 8.40697,12.13284 3.24494,3.76185 6.05859,7.74429 9.05479,11.6339 2.88404,3.46444 6.03542,6.77884 8.93939,10.23191 2.59461,3.33221 4.43144,6.99323 6.83404,10.4105 1.91894,2.88543 4.49766,5.46157 6.98659,8.0391 3.40972,3.07903 5.3034,6.95413 7.65391,10.56716 2.94244,3.94659 4.57782,8.37623 6.87496,12.56421 2.33846,4.8563 5.48199,9.41017 8.26625,14.09629 2.27961,4.27445 3.96763,8.74669 5.65543,13.19354 1.98837,4.46947 3.25836,9.12664 4.53022,13.75772 1.16625,4.37982 3.37122,8.51058 5.08769,12.75645 1.42264,4.48785 2.85551,8.9725 4.05777,13.50331 1.77357,6.34425 2.53779,12.79519 3.02605,19.27343 0.66633,6.56582 1.76984,13.08895 2.73133,19.62802 0.85021,7.24908 1.15803,14.5283 1.34277,21.8052 0.031,6.54311 0.10307,13.08606 0.12986,19.62923 -0.12461,5.46579 -1.22208,10.84918 -2.2454,16.23618 -0.94783,5.75876 -2.25641,11.47653 -3.74094,17.15908 -1.50731,6.13709 -2.99522,12.27543 -4.59903,18.39699 -1.40053,5.67323 -3.60048,11.14168 -6.09337,16.54939 -2.13645,5.30603 -5.56031,10.14299 -8.64903,15.09791 -3.16843,5.53606 -6.20395,11.1201 -9.53791,16.59297 -3.73431,5.49995 -7.23326,11.11403 -11.12802,16.5407 -4.21156,5.38413 -8.45123,10.75446 -12.55438,16.1935 -4.01802,5.42423 -8.34349,10.69404 -12.70087,15.94203 -4.77748,5.52953 -10.01102,10.79483 -15.36219,15.96502 -5.06242,4.68503 -10.26556,9.2678 -15.41322,13.89118 -5.28807,4.86813 -10.95256,9.45356 -16.36752,14.22622 -4.63298,4.8188 -10.55425,8.51053 -16.58352,12.0925 -5.23039,3.23833 -10.41574,6.52376 -15.61882,9.7907 -3.21034,2.35358 -6.23843,4.77571 -9.84453,6.74203 -3.50013,1.71932 -6.70535,3.75534 -9.9696,5.74196 -4.58406,2.65521 -9.40384,5.04051 -14.1845,7.45603 -3.76873,1.73991 -7.08611,3.92027 -10.25682,6.29307 -10.72927,8.64584 -22.50261,11.80947 -37.1271,18.03614 -10.19781,2.33222 -20.30824,4.86045 -30.29215,7.73464 0,0 20.77387,-13.10174 20.77387,-13.10174 l 0,0 c 10.1202,-2.75221 20.36405,-5.17219 30.5039,-7.87496 -29.74884,15.40453 -20.5344,10.93132 -13.53307,6.64422 0.52066,-0.31881 1.15229,-0.51075 1.65399,-0.84885 0.97548,-0.65731 1.59528,-1.61703 2.60578,-2.24773 3.45146,-2.21712 6.29703,-5.01264 10.27821,-6.69603 4.79981,-2.25982 9.39966,-4.79337 14.10186,-7.18229 3.28168,-2.01271 6.41553,-4.14285 9.933,-5.88255 2.31135,-1.20581 4.86856,-2.30626 6.84877,-3.87995 0.52758,-0.41927 0.90383,-0.95024 1.41428,-1.38314 0.54797,-0.46474 1.16907,-0.86905 1.75362,-1.30355 5.1244,-3.48262 10.7473,-6.48027 15.84931,-9.99552 6.02258,-3.44827 12.15007,-6.91265 16.76351,-11.64646 5.29825,-4.86755 11.12991,-9.33841 16.3968,-14.23323 5.11628,-4.63741 10.28846,-9.22409 15.43643,-13.83811 5.43664,-5.0819 10.62152,-10.33798 15.52767,-15.76244 4.38904,-5.18432 8.58079,-10.4801 12.68991,-15.81189 4.04362,-5.47771 8.32185,-10.84043 12.58229,-16.20856 4.1269,-5.26692 7.23978,-11.01379 11.17968,-16.37597 3.46739,-5.39109 6.43037,-10.97718 9.48134,-16.5285 2.86395,-4.99063 6.65197,-9.63449 8.76445,-14.90726 2.42679,-5.35732 4.92558,-10.66621 6.33544,-16.28522 1.57904,-6.13259 3.19628,-12.25608 4.60626,-18.41616 1.54757,-5.61253 2.74888,-11.28726 3.67131,-16.98789 1.04078,-5.30189 2.2223,-10.58445 2.50454,-15.96221 0.0425,-6.54725 0.14229,-13.09552 10e-4,-19.64243 -0.1008,-7.21117 -0.2556,-14.43493 -1.20853,-21.61186 -0.94938,-6.58228 -2.17912,-13.13445 -2.79357,-19.74774 -0.43352,-6.35167 -1.13767,-12.70362 -3.06052,-18.89201 -1.1204,-4.4682 -2.7142,-8.8364 -4.01284,-13.27048 -1.63961,-4.34531 -3.93141,-8.52365 -5.15647,-12.97028 -1.14833,-4.58647 -2.48646,-9.16821 -4.4515,-13.57372 -1.63303,-4.35385 -3.26631,-8.72631 -5.34216,-12.95576 -2.77198,-4.7043 -5.99712,-9.23749 -8.37592,-14.09375 -2.37417,-4.11264 -3.82772,-8.56121 -6.83067,-12.43743 -2.28521,-3.49479 -4.14827,-7.22984 -7.51182,-10.17272 -2.58667,-2.65373 -5.2246,-5.33192 -7.14719,-8.34346 -2.37202,-3.36911 -4.13437,-6.99743 -6.72648,-10.2669 -2.88328,-3.49263 -6.02933,-6.84076 -8.90697,-10.33702 -2.97569,-3.84751 -5.73579,-7.80368 -8.95103,-11.527 -3.38083,-3.86052 -5.79742,-8.17551 -8.58785,-12.32102 -2.79944,-4.06214 -5.88034,-7.92638 -9.895,-11.29426 -3.39158,-3.18249 -5.97949,-6.76165 -9.18402,-10.05592 -3.62885,-3.71165 -7.60426,-7.17984 -11.22792,-10.89644 -4.33721,-4.40396 -8.8772,-8.67649 -12.95189,-13.24654 -4.45452,-4.5655 -9.52459,-8.68963 -14.66314,-12.74973 -6.60598,-4.81569 -12.80066,-9.96766 -19.21992,-14.94415 -5.90851,-4.50193 -11.94447,-8.88886 -18.00563,-13.25533 -5.54635,-3.60573 -11.08185,-7.2254 -16.47206,-10.98401 -4.25363,-3.3247 -8.35225,-6.77155 -13.08071,-9.67295 0,0 23.45177,-11.63995 23.45177,-11.63995 z"
     inkscape:connector-curvature="0" />
  <path
     style="fill:url(#linearGradient3533)"
     id="path3039-4-5-1"
     d="m 388.75677,248.77975 c 4.59716,3.0144 8.62569,6.49557 12.89288,9.79004 5.44247,3.6601 10.95281,7.25302 16.42865,10.88113 6.1742,4.39607 12.26339,8.85845 18.21224,13.45094 6.38187,5.04414 12.77789,10.06383 19.44149,14.86861 5.40596,4.08066 10.63036,8.31543 15.18578,13.01994 4.16769,4.53149 8.70151,8.83045 13.10794,13.21126 3.72186,3.69251 7.8055,7.12566 11.51849,10.82271 3.28265,3.23597 5.75577,6.85084 9.17928,10.00362 4.11767,3.51843 7.34582,7.49636 10.30277,11.66955 2.76462,4.08072 5.10981,8.35163 8.5007,12.13284 3.28113,3.76185 6.12615,7.74429 9.15576,11.6339 2.91619,3.46444 6.10271,6.77884 9.03906,10.23191 2.62354,3.33221 4.48086,6.99323 6.91024,10.4105 1.94034,2.88543 4.54782,5.46157 7.06449,8.0391 3.44774,3.07903 5.36254,6.95413 7.73925,10.56716 2.97525,3.94659 4.62887,8.37623 6.95162,12.56421 2.36454,4.8563 5.54312,9.41017 8.35842,14.09629 2.30502,4.27445 4.01187,8.74669 5.71849,13.19354 2.01054,4.46947 3.29468,9.12664 4.58073,13.75772 1.17925,4.37982 3.4088,8.51058 5.14442,12.75645 1.4385,4.48785 2.88735,8.9725 4.10301,13.50331 1.79334,6.34425 2.56609,12.79519 3.0598,19.27343 0.67376,6.56582 1.78956,13.08895 2.76178,19.62802 0.85969,7.24908 1.17094,14.5283 1.35774,21.8052 0.0314,6.54311 0.10421,13.08606 0.13131,19.62923 -0.126,5.46579 -1.23571,10.84918 -2.27044,16.23618 -0.95839,5.75876 -2.28157,11.47653 -3.78265,17.15908 -1.52412,6.13709 -3.02861,12.27543 -4.65031,18.39699 -1.41615,5.67323 -3.64063,11.14168 -6.16131,16.54939 -2.16028,5.30603 -5.62231,10.14299 -8.74547,15.09791 -3.20376,5.53606 -6.27313,11.1201 -9.64425,16.59297 -3.77596,5.49995 -7.31392,11.11403 -11.25211,16.5407 -4.25852,5.38413 -8.54546,10.75446 -12.69436,16.1935 -4.06282,5.42423 -8.43651,10.69404 -12.84248,15.94203 -4.83076,5.52953 -10.12265,10.79483 -15.53348,15.96502 -5.11886,4.68503 -10.38002,9.2678 -15.58508,13.89118 -5.34703,4.86813 -11.07468,9.45356 -16.55002,14.22622 -4.68463,4.8188 -10.67193,8.51053 -16.76843,12.0925 -5.28871,3.23833 -10.53187,6.52376 -15.79296,9.7907 -3.24614,2.35358 -6.30799,4.77571 -9.9543,6.74203 -3.53916,1.71932 -6.78012,3.75534 -10.08076,5.74196 -4.63517,2.65521 -9.5087,5.04051 -14.34266,7.45603 -3.81075,1.73991 -7.16512,3.92027 -10.37118,6.29307 -10.84891,8.64584 -22.75352,11.80947 -37.54107,18.03614 -10.31152,2.33222 -20.53468,4.86045 -30.62991,7.73464 0,0 21.0055,-13.10174 21.0055,-13.10174 l 0,0 c 10.23304,-2.75221 20.59111,-5.17219 30.84402,-7.87496 -30.08055,15.40453 -20.76336,10.93132 -13.68396,6.64422 0.52646,-0.31881 1.16513,-0.51075 1.67243,-0.84885 0.98635,-0.65731 1.61307,-1.61703 2.63483,-2.24773 3.48994,-2.21712 6.36725,-5.01264 10.39281,-6.69603 4.85333,-2.25982 9.50447,-4.79337 14.2591,-7.18229 3.31827,-2.01271 6.48706,-4.14285 10.04375,-5.88255 2.33713,-1.20581 4.92284,-2.30626 6.92514,-3.87995 0.53346,-0.41927 0.9139,-0.95024 1.43004,-1.38314 0.55409,-0.46474 1.18211,-0.86905 1.77318,-1.30355 5.18154,-3.48262 10.86713,-6.48027 16.02603,-9.99552 6.08973,-3.44827 12.28554,-6.91265 16.95042,-11.64646 5.35733,-4.86755 11.25401,-9.33841 16.57963,-14.23323 5.17332,-4.63741 10.40318,-9.22409 15.60855,-13.83811 5.49725,-5.0819 10.73995,-10.33798 15.7008,-15.76244 4.43798,-5.18432 8.67646,-10.4801 12.8314,-15.81189 4.08871,-5.47771 8.41464,-10.84043 12.72259,-16.20856 4.17291,-5.26692 7.3205,-11.01379 11.30432,-16.37597 3.50606,-5.39109 6.50208,-10.97718 9.58706,-16.5285 2.89589,-4.99063 6.72614,-9.63449 8.86218,-14.90726 2.45385,-5.35732 4.9805,-10.66621 6.40608,-16.28522 1.59664,-6.13259 3.23191,-12.25608 4.65762,-18.41616 1.56483,-5.61253 2.77952,-11.28726 3.71224,-16.98789 1.05239,-5.30189 2.24708,-10.58445 2.53247,-15.96221 0.043,-6.54725 0.14387,-13.09552 10e-4,-19.64243 -0.10192,-7.21117 -0.25845,-14.43493 -1.222,-21.61186 -0.95997,-6.58228 -2.20342,-13.13445 -2.82472,-19.74774 -0.43836,-6.35167 -1.15036,-12.70362 -3.09464,-18.89201 -1.13291,-4.4682 -2.74447,-8.8364 -4.05759,-13.27048 -1.65789,-4.34531 -3.97525,-8.52365 -5.21396,-12.97028 -1.16114,-4.58647 -2.51419,-9.16821 -4.50114,-13.57372 -1.65123,-4.35385 -3.30273,-8.72631 -5.40173,-12.95576 -2.80289,-4.7043 -6.06398,-9.23749 -8.4693,-14.09375 -2.40065,-4.11264 -3.8704,-8.56121 -6.90684,-12.43743 -2.31069,-3.49479 -4.19452,-7.22984 -7.59557,-10.17272 -2.61552,-2.65373 -5.28286,-5.33192 -7.22688,-8.34346 -2.39848,-3.36911 -4.18047,-6.99743 -6.80149,-10.2669 -2.91543,-3.49263 -6.09655,-6.84076 -9.00628,-10.33702 -3.00887,-3.84751 -5.79974,-7.80368 -9.05084,-11.527 -3.41852,-3.86052 -5.86205,-8.17551 -8.6836,-12.32102 -2.83066,-4.06214 -5.9459,-7.92638 -10.00533,-11.29426 -3.42939,-3.18249 -6.04616,-6.76165 -9.28642,-10.05592 -3.66931,-3.71165 -7.68905,-7.17984 -11.35311,-10.89644 -4.38557,-4.40396 -8.97619,-8.67649 -13.0963,-13.24654 -4.5042,-4.5655 -9.6308,-8.68963 -14.82664,-12.74973 -6.67963,-4.81569 -12.94339,-9.96766 -19.43422,-14.94415 -5.97439,-4.50193 -12.07765,-8.88886 -18.2064,-13.25533 -5.60819,-3.60573 -11.20541,-7.2254 -16.65572,-10.98401 -4.30106,-3.3247 -8.44537,-6.77155 -13.22656,-9.67295 0,0 23.71326,-11.63995 23.71326,-11.63995 z"
     inkscape:connector-curvature="0" />
  <path
     style="fill:url(#linearGradient3567)"
     id="path3039-4-0-3"
     d="m 370.78343,297.76187 c 3.58331,2.46126 6.72338,5.30365 10.04948,7.99359 4.24218,2.98848 8.53724,5.92211 12.80545,8.88447 4.81251,3.5894 9.5588,7.23295 14.19568,10.98273 4.97442,4.11856 9.95983,8.21715 15.15383,12.14026 4.21373,3.33187 8.28593,6.78958 11.83669,10.63082 3.24855,3.69997 6.78245,7.21008 10.21708,10.78703 2.90105,3.01495 6.08409,5.81811 8.97821,8.83677 2.55868,2.64218 4.48638,5.59373 7.15485,8.16799 3.20955,2.8728 5.72576,6.12079 8.03059,9.52822 2.15491,3.33192 3.98287,6.81912 6.62593,9.90649 2.55751,3.07155 4.7751,6.32324 7.13654,9.4991 2.27305,2.82873 4.75681,5.53495 7.04557,8.3544 2.04494,2.72076 3.49265,5.70999 5.38625,8.50019 1.51242,2.35596 3.54483,4.45939 5.50647,6.56395 2.68738,2.51404 4.17989,5.67807 6.03243,8.62812 2.31908,3.2224 3.60803,6.8392 5.41849,10.25871 1.84307,3.96518 4.32064,7.68342 6.51504,11.50966 1.79667,3.49009 3.1271,7.14169 4.45735,10.77255 1.56711,3.64934 2.56807,7.45193 3.57046,11.23321 0.9192,3.57615 2.65705,6.94892 4.00989,10.41569 1.12124,3.66434 2.25055,7.32606 3.19812,11.02548 1.39783,5.18009 2.00015,10.44731 2.38498,15.73681 0.52516,5.36101 1.3949,10.68716 2.15269,16.02633 0.67009,5.91888 0.91272,11.86239 1.05831,17.80399 0.0246,5.34248 0.0813,10.68482 0.10242,16.02734 -0.0981,4.46282 -0.9632,8.85838 -1.76973,13.25688 -0.74702,4.70204 -1.77839,9.37061 -2.94842,14.01043 -1.18798,5.01094 -2.36067,10.02292 -3.62473,15.02119 -1.10382,4.63221 -2.8377,9.09722 -4.80246,13.51262 -1.68385,4.33239 -4.38237,8.28178 -6.81676,12.32748 -2.4972,4.52021 -4.88962,9.07959 -7.51729,13.54821 -2.94318,4.49072 -5.70088,9.07463 -8.77053,13.50552 -3.31935,4.39616 -6.66083,8.78105 -9.89474,13.22204 -3.1668,4.4289 -6.57592,8.73172 -10.01018,13.01671 -3.76538,4.51488 -7.89017,8.814 -12.1077,13.03548 -3.98995,3.82533 -8.09079,7.56719 -12.14792,11.34218 -4.16779,3.97485 -8.63226,7.71886 -12.90006,11.61575 -3.65148,3.93457 -8.31832,6.94886 -13.07028,9.87356 -4.12234,2.64411 -8.20917,5.32667 -12.30996,7.99413 -2.53025,1.92171 -4.91682,3.89939 -7.75897,5.5049 -2.75863,1.40382 -5.28481,3.06624 -7.85753,4.68831 -3.61294,2.16799 -7.41163,4.11559 -11.17951,6.08787 -2.97033,1.42065 -5.58491,3.2009 -8.08391,5.13831 -8.45626,7.05935 -17.73542,9.64246 -29.2617,14.72656 -8.03742,1.90427 -16.00594,3.96857 -23.87474,6.31535 0,0 16.37291,-10.6976 16.37291,-10.6976 l 0,0 c 7.97623,-2.2472 16.04991,-4.22311 24.04163,-6.42994 -23.44652,12.57786 -16.18417,8.92546 -10.66606,5.42503 0.41034,-0.26031 0.90814,-0.41702 1.30357,-0.69308 0.76882,-0.5367 1.25731,-1.32031 2.05375,-1.83528 2.72027,-1.8103 4.96299,-4.09284 8.10077,-5.46732 3.78296,-1.84516 7.40833,-3.91381 11.11437,-5.86437 2.58645,-1.64338 5.05639,-3.38265 7.82868,-4.80312 1.82171,-0.98454 3.83715,-1.88307 5.39786,-3.16799 0.41581,-0.34233 0.71236,-0.77586 1.11467,-1.12934 0.43189,-0.37945 0.9214,-0.70957 1.3821,-1.06435 4.03882,-2.84357 8.47049,-5.29115 12.49162,-8.16136 4.74672,-2.81553 9.57608,-5.6442 13.21216,-9.50937 4.17582,-3.97436 8.77204,-7.62483 12.92314,-11.62147 4.03237,-3.78646 8.10883,-7.5315 12.1662,-11.29885 4.28489,-4.14938 8.37137,-8.44099 12.23814,-12.87007 3.45922,-4.23302 6.76292,-8.55704 10.00154,-12.91045 3.18699,-4.47256 6.55886,-8.85125 9.91671,-13.23434 3.25261,-4.30045 5.70605,-8.99279 8.81128,-13.37102 2.73281,-4.40184 5.06808,-8.9629 7.47271,-13.49557 2.25722,-4.07487 5.24275,-7.86658 6.90768,-12.1718 1.9127,-4.37428 3.88209,-8.709 4.99327,-13.29693 1.24452,-5.00728 2.51917,-10.00712 3.63042,-15.03686 1.21975,-4.58264 2.16653,-9.21607 2.89354,-13.87065 0.82029,-4.32901 1.75152,-8.64223 1.97397,-13.03318 0.0335,-5.34585 0.11213,-10.69253 10e-4,-16.03809 -0.0793,-5.88795 -0.20146,-11.78617 -0.95252,-17.64615 -0.74825,-5.37445 -1.71746,-10.72432 -2.20174,-16.1241 -0.34167,-5.18613 -0.89666,-10.37252 -2.41215,-15.42536 -0.88305,-3.6483 -2.13921,-7.21495 -3.16273,-10.83538 -1.29224,-3.54796 -3.09852,-6.95959 -4.06406,-10.59027 -0.90506,-3.74487 -1.9597,-7.48586 -3.50845,-11.08298 -1.28706,-3.55493 -2.57435,-7.12505 -4.21041,-10.57841 -2.18476,-3.84108 -4.72663,-7.54244 -6.60149,-11.50759 -1.87119,-3.35798 -3.0168,-6.99025 -5.38357,-10.15519 -1.8011,-2.8535 -3.26946,-5.90319 -5.92044,-8.30606 -2.0387,-2.16678 -4.11779,-4.35352 -5.63306,-6.81245 -1.86952,-2.75088 -3.2585,-5.71342 -5.30148,-8.38296 -2.27245,-2.85174 -4.75199,-5.58549 -7.02002,-8.4402 -2.34529,-3.1415 -4.52064,-6.37171 -7.05474,-9.41182 -2.6646,-3.15213 -4.56924,-6.67533 -6.76852,-10.06014 -2.20637,-3.31676 -4.63458,-6.47192 -7.79874,-9.2218 -2.67307,-2.59851 -4.71273,-5.52091 -7.23837,-8.21068 -2.86008,-3.03059 -5.9933,-5.86237 -8.84928,-8.89698 -3.41837,-3.59585 -6.99658,-7.08437 -10.20805,-10.81583 -3.5108,-3.72775 -7.50678,-7.09511 -11.55672,-10.41019 -5.2065,-3.93203 -10.08884,-8.13862 -15.14817,-12.20194 -4.6568,-3.67584 -9.41403,-7.25778 -14.19114,-10.82302 -4.37136,-2.94409 -8.73414,-5.89956 -12.98243,-8.96847 -3.35251,-2.71463 -6.58282,-5.52899 -10.30955,-7.89799 0,0 18.4835,-9.50405 18.4835,-9.50405 z"
     inkscape:connector-curvature="0" />
  <path
     style="fill:url(#linearGradient3601)"
     id="path3039-8-2"
     d="m 333.74151,370.86952 c 2.7722,1.84175 5.20151,3.9687 7.77474,5.98158 3.28193,2.23627 6.60481,4.43149 9.90689,6.64821 3.72318,2.68593 7.39513,5.41239 10.98243,8.21833 3.84846,3.08191 7.7054,6.14886 11.72372,9.0845 3.25992,2.49323 6.41038,5.08062 9.1574,7.955 2.51323,2.76867 5.24723,5.39528 7.90441,8.0719 2.24438,2.25607 4.70693,4.35366 6.94596,6.61251 1.97951,1.97714 3.47087,4.18578 5.53532,6.11208 2.48307,2.1497 4.42972,4.58017 6.21285,7.12993 1.66712,2.49326 3.08132,5.10271 5.12613,7.41299 1.9786,2.29842 3.69423,4.73164 5.52115,7.10813 1.75854,2.11674 3.68008,4.14178 5.45078,6.25156 1.58205,2.03593 2.70208,4.27276 4.16706,6.36066 1.17006,1.76296 2.74244,3.33695 4.26005,4.91178 2.07908,1.88124 3.23376,4.24888 4.66698,6.45638 1.79413,2.41132 2.79132,5.11776 4.19199,7.67655 1.42589,2.96713 3.34264,5.74948 5.04034,8.61264 1.38999,2.61162 2.41927,5.3441 3.4484,8.06106 1.21241,2.73078 1.98678,5.57624 2.76228,8.40576 0.71112,2.67602 2.05562,5.19985 3.10223,7.79402 0.86745,2.74201 1.74113,5.48206 2.47422,8.25032 1.08143,3.87624 1.54741,7.81769 1.84512,11.77579 0.40632,4.01163 1.07917,7.99716 1.66544,11.99244 0.5184,4.42907 0.70611,8.87658 0.81874,13.32265 0.019,3.99775 0.0629,7.99542 0.0792,11.9932 -0.076,3.33951 -0.74517,6.62869 -1.36914,9.92007 -0.57792,3.51852 -1.37584,7.01199 -2.28103,10.48394 -0.91907,3.74967 -1.82632,7.50012 -2.80427,11.2403 -0.85396,3.46627 -2.19536,6.80741 -3.7154,10.11144 -1.30271,3.24191 -3.3904,6.19723 -5.27376,9.22461 -1.93194,3.38245 -3.78284,6.79421 -5.81572,10.13806 -2.27698,3.36039 -4.41046,6.79051 -6.78529,10.10613 -2.56801,3.28963 -5.15313,6.57082 -7.65502,9.894 -2.45,3.31412 -5.08745,6.53391 -7.74435,9.74035 -2.91307,3.37846 -6.1042,6.59548 -9.36708,9.75439 -3.08681,2.86249 -6.25941,5.6625 -9.3982,8.48731 -3.22439,2.97436 -6.6783,5.77599 -9.98008,8.69202 -2.82495,2.94422 -6.43544,5.1998 -10.11178,7.38834 -3.18923,1.97859 -6.35099,3.98593 -9.52356,5.98198 -1.95751,1.43801 -3.80387,2.9179 -6.00269,4.1193 -2.13421,1.05046 -4.08858,2.29445 -6.07895,3.50824 -2.79514,1.6223 -5.73398,3.07968 -8.64899,4.55553 -2.29798,1.06307 -4.32074,2.39522 -6.25409,3.84497 -6.54215,5.28249 -13.72093,7.21542 -22.63821,11.01983 -6.21812,1.42496 -12.38294,2.96967 -18.4706,4.72575 0,0 12.66684,-8.00497 12.66684,-8.00497 l 0,0 c 6.17078,-1.68157 12.41696,-3.16014 18.59973,-4.8115 -18.13933,9.41196 -12.52084,6.67888 -8.25179,4.05953 0.31748,-0.19479 0.70259,-0.31205 1.00853,-0.51863 0.59479,-0.40161 0.9727,-0.98798 1.58886,-1.37334 2.10454,-1.35463 3.83961,-3.06265 6.26715,-4.09117 2.92666,-1.38072 5.73142,-2.92868 8.59858,-4.38827 2.001,-1.22974 3.91186,-2.53123 6.05663,-3.59417 1.40934,-0.73673 2.9686,-1.40908 4.17604,-2.37059 0.32169,-0.25616 0.55111,-0.58057 0.86235,-0.84508 0.33414,-0.28394 0.71284,-0.53097 1.06927,-0.79645 3.12461,-2.12783 6.55317,-3.95935 9.6641,-6.10711 3.67228,-2.10685 7.40849,-4.22353 10.22153,-7.11582 3.23061,-2.97401 6.78647,-5.70563 9.99794,-8.69631 3.11964,-2.83339 6.27338,-5.63578 9.41235,-8.45488 3.31498,-3.10496 6.47645,-6.31636 9.46798,-9.63062 2.67621,-3.16755 5.23212,-6.4032 7.73765,-9.66083 2.46561,-3.3468 5.07425,-6.62336 7.67203,-9.90321 2.51637,-3.21801 4.41448,-6.72927 6.81683,-10.00548 2.11422,-3.29388 3.9209,-6.7069 5.78123,-10.09868 1.74629,-3.04921 4.05603,-5.88653 5.34409,-9.1081 1.47976,-3.27327 3.00338,-6.51692 3.86303,-9.95005 0.96282,-3.74692 1.94896,-7.48828 2.80866,-11.25201 0.94364,-3.42918 1.67614,-6.89635 2.23859,-10.37936 0.6346,-3.23937 1.35505,-6.46694 1.52715,-9.75267 0.0259,-4.00028 0.0867,-8.00118 9.6e-4,-12.00124 -0.0615,-4.40594 -0.15586,-8.81955 -0.73692,-13.20454 -0.57889,-4.02168 -1.32871,-8.02497 -1.70336,-12.06561 -0.26434,-3.88075 -0.69372,-7.7617 -1.86616,-11.54273 -0.68318,-2.73 -1.65499,-5.39892 -2.44683,-8.10807 -0.99975,-2.65492 -2.39718,-5.20783 -3.14414,-7.92465 -0.70021,-2.80228 -1.51613,-5.60164 -2.71432,-8.29335 -0.99573,-2.66014 -1.99162,-5.33164 -3.25737,-7.91578 -1.69022,-2.87427 -3.65673,-5.64398 -5.10722,-8.61109 -1.44762,-2.51276 -2.33392,-5.23077 -4.16496,-7.59908 -1.39342,-2.13527 -2.52942,-4.41734 -4.58033,-6.21539 -1.57724,-1.6214 -3.18571,-3.25772 -4.35799,-5.09773 -1.44635,-2.05848 -2.52094,-4.27533 -4.10149,-6.27294 -1.75809,-2.13394 -3.67636,-4.17959 -5.431,-6.31577 -1.81444,-2.35077 -3.49739,-4.76792 -5.45789,-7.04283 -2.06147,-2.35871 -3.53497,-4.99511 -5.23644,-7.52796 -1.70695,-2.48191 -3.58552,-4.84291 -6.03346,-6.90063 -2.068,-1.94446 -3.64598,-4.13128 -5.59994,-6.14402 -2.21269,-2.26778 -4.63669,-4.38678 -6.84621,-6.65758 -2.64461,-2.69075 -5.41287,-5.30119 -7.89742,-8.09344 -2.71613,-2.78945 -5.80762,-5.30923 -8.94082,-7.7899 -4.028,-2.94232 -7.80519,-6.09009 -11.71933,-9.13066 -3.60271,-2.75062 -7.28313,-5.43097 -10.97892,-8.09882 -3.38188,-2.20305 -6.75714,-4.41462 -10.04383,-6.71107 -2.59364,-2.03134 -5.09276,-4.13732 -7.97593,-5.91003 0,0 14.29969,-7.11185 14.29969,-7.11185 z"
     inkscape:connector-curvature="0" />
  <path
     style="fill:url(#linearGradient3135)"
     d="m 174.59369,677.70234 -0.28941,-97.68317 -43.599,32.36458 c -23.97945,17.80051 -44.005853,32.36456 -44.503063,32.36456 -0.49725,0 -6.839799,-4.79286 -14.094588,-10.65082 L 58.917134,623.44666 80.190413,607.53485 c 11.700314,-8.75149 36.324377,-27.10526 54.720137,-40.78614 l 33.44685,-24.87433 -55.06641,-41.7569 -55.06641,-41.75688 14.241307,-10.79749 14.24129,-10.79747 43.735403,33.23269 c 24.05445,18.27799 43.88953,33.23269 44.07797,33.23269 0.18843,0 0.47291,-41.74897 0.63223,-92.7755 l 0.28963,-92.77551 80.23845,70.3708 c 44.13114,38.70394 80.23843,70.67614 80.23843,71.04933 0,0.37319 -24.9998,19.26364 -55.55512,41.97877 l -55.55514,41.30022 55.87384,42.36892 55.87386,42.36891 -79.80543,73.31822 c -43.89297,40.32502 -80.26953,73.68545 -80.83679,74.13428 -0.61676,0.48801 -1.14774,-38.45279 -1.32082,-96.86712 l 0,0 z m 73.70008,-17.06758 c 17.91669,-16.4163 32.80298,-30.29836 33.08063,-30.84905 0.27764,-0.55068 -14.60871,-12.4539 -33.08078,-26.4516 l -33.58558,-25.45037 0,56.29941 c 0,30.96468 0.22722,56.29941 0.50495,56.29941 0.27771,0 15.16406,-13.43151 33.08078,-29.8478 z m 1.64495,-179.27048 32.01591,-24.02405 -6.102,-5.31492 c -3.35609,-2.9232 -18.04882,-15.79926 -32.6505,-28.61347 -14.60168,-12.81424 -26.98627,-23.42803 -27.52131,-23.58623 -0.53502,-0.1582 -0.97278,23.83922 -0.97278,53.32759 0,45.92854 0.23044,53.5163 1.60737,52.92517 0.88405,-0.37954 16.01454,-11.50089 33.62331,-24.71409 l 0,0 z"
     id="path2989-4"
     inkscape:connector-curvature="0" />
</svg>
